HIERARCHY
ROOT Hips
{
	OFFSET 0.00000 0.00000 0.00000
	CHANNELS 6 Xposition Yposition Zposition Zrotation Yrotation Xrotation 
	JOINT LHipJoint
	{
		OFFSET 0 0 0
		CHANNELS 3 Zrotation Yrotation Xrotation
		JOINT LeftHip
		{
			OFFSET 1.59801 -1.77853 0.57028
			CHANNELS 3 Zrotation Yrotation Xrotation
			JOINT LeftKnee
			{
				OFFSET 2.39439 -6.57854 0.00000
				CHANNELS 3 Zrotation Yrotation Xrotation
				JOINT LeftAnkle
				{
					OFFSET 2.69334 -7.39989 0.00000
					CHANNELS 3 Zrotation Yrotation Xrotation
					JOINT LeftToe
					{
						OFFSET 0.09553 -0.26245 1.73747
						CHANNELS 3 Zrotation Yrotation Xrotation
						End Site
						{
							OFFSET 0.00000 -0.00000 0.89391
						}
					}
				}
			}
		}
	}
	JOINT RHipJoint
	{
		OFFSET 0 0 0
		CHANNELS 3 Zrotation Yrotation Xrotation
		JOINT RightHip
		{
			OFFSET -1.54704 -1.77852 0.57028
			CHANNELS 3 Zrotation Yrotation Xrotation
			JOINT RightKnee
			{
				OFFSET -2.40286 -6.60180 0.00000
				CHANNELS 3 Zrotation Yrotation Xrotation
				JOINT RightAnkle
				{
					OFFSET -2.63873 -7.24984 0.00000
					CHANNELS 3 Zrotation Yrotation Xrotation
					JOINT RightToe
					{
						OFFSET -0.15631 -0.42945 1.84436
						CHANNELS 3 Zrotation Yrotation Xrotation
						End Site
						{
							OFFSET -0.00000 -0.00000 0.95734
						}
					}
				}
			}
		}
	}
	JOINT lowerback
	{
		OFFSET 0 0 0
		CHANNELS 3 Zrotation Yrotation Xrotation
		JOINT Chest
		{
			OFFSET -0.00436 1.89866 -0.04018
			CHANNELS 3 Zrotation Yrotation Xrotation
			JOINT Chest2
			{
				OFFSET 0.02031 1.88273 0.09634
				CHANNELS 3 Zrotation Yrotation Xrotation
				JOINT lowerneck
				{
					OFFSET 0 0 0
					CHANNELS 3 Zrotation Yrotation Xrotation
					JOINT Neck
					{
						OFFSET -0.13105 1.89371 0.23083
						CHANNELS 3 Zrotation Yrotation Xrotation
						JOINT Head
						{
							OFFSET 0.17062 1.83990 -0.54062
							CHANNELS 3 Zrotation Yrotation Xrotation
							End Site
							{
								OFFSET 0.04576 1.94782 -0.21839
							}
						}
					}
				}
				JOINT LeftCollar
				{
					OFFSET 0 0 0
					CHANNELS 3 Zrotation Yrotation Xrotation
					JOINT LeftShoulder
					{
						OFFSET 3.12424 1.09204 0.22226
CHANNELS 3 Zrotation Xrotation Yrotation
						JOINT LeftElbow
						{
OFFSET 0 -5.292770 0.000000
CHANNELS 3 Zrotation Xrotation Yrotation
							JOINT LeftWrist
							{
OFFSET 0 -2.852260 0.000000
CHANNELS 3 Zrotation Xrotation Yrotation
								JOINT lhand
								{
									OFFSET 0 0 0
CHANNELS 3 Zrotation Xrotation Yrotation
									JOINT LFingers
									{
OFFSET 0 -0.602100 0.000000
CHANNELS 3 Zrotation Xrotation Yrotation
										End Site
										{
OFFSET 0 -0.485430 0.000000
										}
									}
								}
								JOINT LThumb
								{
OFFSET 0 0.000000 0.000000
CHANNELS 3 Zrotation Xrotation Yrotation
									End Site
									{
OFFSET 0 -0.492840 0.492840
									}
								}
							}
						}
					}
				}
				JOINT RightCollar
				{
					OFFSET 0 0 0
					CHANNELS 3 Zrotation Yrotation Xrotation
					JOINT RightShoulder
					{
						OFFSET -2.91709 1.01504 0.30199
CHANNELS 3 Zrotation Xrotation Yrotation
						JOINT RightElbow
						{
OFFSET 0 -5.133040 0.000000
CHANNELS 3 Zrotation Xrotation Yrotation
							JOINT RightWrist
							{
OFFSET 0 -2.743050 0.000000
CHANNELS 3 Zrotation Xrotation Yrotation
								JOINT rhand
								{
									OFFSET 0 0 0
CHANNELS 3 Zrotation Xrotation Yrotation
									JOINT RFingers
									{
OFFSET 0 -0.767980 0.000000
CHANNELS 3 Zrotation Xrotation Yrotation
										End Site
										{
OFFSET 0 -0.619160 0.000000
										}
									}
								}
								JOINT RThumb
								{
OFFSET 0 0.000000 0.000000
CHANNELS 3 Zrotation Xrotation Yrotation
									End Site
									{
OFFSET 0 -0.628620 0.628620
									}
								}
							}
						}
					}
				}
			}
		}
	}
}
MOTION
Frames: 11
Frame Time: 0.008333333333333333
0.241900 16.473700 -1.641100 -4.237600 2.987500 16.074200 0.000000 0.000000 0.000000 -6.568900 -17.459600 -41.179200 6.788700 15.151400 48.070700 1.196700 -6.727100 -19.542200 1.005600 -6.381000 -17.893800 0.000000 0.000000 0.000000 16.932500 15.324600 -37.398200 -5.539000 -13.966300 43.102400 -1.391700 1.139100 -21.968400 -1.139700 6.779500 -19.063800 -1.556400 0.711300 18.527600 -0.994600 0.591900 5.457300 -0.301800 0.297100 -4.508100 -19.793800 -9.071800 -3.435600 30.186600 -10.314600 -11.928500 12.894600 -5.354900 0.300000 0.000000 0.000000 0.000000 12.379500 -50.395800 -37.062400 104.486400 -59.192000 72.511500 -24.189300 -3.855400 -33.678700 0.000000 0.000000 0.000000 -7.125000 0.000000 0.000000 -58.260000 54.371500 17.955700 0.000000 0.000000 0.000000 -16.905200 -51.868600 32.326800 -104.386200 -59.203400 -72.425500 33.995800 30.247200 -9.087100 0.000000 0.000000 0.000000 7.125000 0.000000 -0.000000 38.405200 17.670000 33.725100
0.333817 16.152782 -1.838460 -1.492772 3.000424 15.708240 0.000000 0.000000 0.000000 -9.742243 -17.442149 -44.040161 7.869219 16.022164 52.090242 1.220416 -8.986625 -19.819217 0.835407 -5.830560 -16.293586 0.000000 0.000000 0.000000 12.827099 14.638253 -41.793993 -7.314183 -15.590869 50.052799 -1.785864 1.916150 -24.745764 -1.015351 6.410978 -17.981512 -3.349842 1.176548 19.396342 0.478417 0.942555 6.328146 2.201803 0.450369 -4.077917 -20.265515 -8.663067 -2.322228 30.027441 -9.703218 -12.938790 13.100225 -5.132610 -0.317147 0.000000 0.000000 0.000000 18.457374 -59.024363 -30.281703 109.077928 -58.579037 76.443173 -27.154139 -7.070163 -35.170745 0.000000 0.000000 0.000000 -7.125000 0.000000 0.000000 -62.181764 54.685429 20.607509 0.000000 0.000000 0.000000 -17.571357 -58.044346 28.816602 -109.612338 -58.495331 -76.898966 30.862598 30.609551 -8.109538 0.000000 0.000000 0.000000 7.125000 0.000000 0.000000 37.441114 19.429079 30.117604
0.428594 16.226207 -1.882499 -1.181388 2.706732 16.239390 0.000000 0.000000 0.000000 -10.723266 -16.472143 -44.264451 7.461418 15.708249 50.598239 1.093702 -9.119771 -18.805979 0.843352 -5.857595 -16.371736 0.000000 0.000000 0.000000 11.854140 15.339967 -41.711995 -6.982544 -15.316999 48.807950 -1.657642 1.152108 -24.017233 -1.147420 6.801827 -19.129496 -1.767422 1.519913 20.424150 1.408038 1.714909 6.066268 2.099052 0.835517 -4.930022 -19.841654 -8.618236 -1.549988 29.664922 -9.640464 -13.553131 12.953288 -5.173439 -0.696666 0.000000 0.000000 0.000000 19.986420 -58.899713 -31.543627 106.528122 -58.942142 74.262848 -27.831241 -5.660038 -33.547649 0.000000 0.000000 0.000000 -7.125000 0.000000 0.000000 -60.902813 53.558588 17.934626 0.000000 0.000000 0.000000 -8.518106 -55.710543 31.731282 -114.321233 -57.642423 -80.896133 28.789938 30.520125 -6.981503 0.000000 0.000000 0.000000 7.125000 0.000000 0.000000 36.852783 20.908292 27.587742
0.555904 16.578663 -1.828696 -0.165954 2.866072 17.508634 0.000000 0.000000 0.000000 -12.613569 -17.095445 -41.303425 5.724691 14.155415 43.865133 0.856997 -7.502354 -16.570338 0.894446 -6.026906 -16.862987 0.000000 0.000000 0.000000 10.543872 15.178106 -39.126264 -5.389658 -13.808966 42.478758 -1.296015 -0.004652 -21.537951 -1.218921 7.002678 -19.723360 -0.149784 1.210355 19.925208 2.230490 1.688887 5.799638 2.068768 0.819531 -4.938831 -19.343318 -8.819360 -2.241538 28.203115 -9.921216 -13.242531 12.218438 -5.221528 -0.585208 0.000000 0.000000 0.000000 13.984938 -52.387708 -39.989186 103.879889 -59.259320 71.990362 -28.880481 -4.466870 -33.289364 0.000000 0.000000 0.000000 -7.125000 0.000000 0.000000 -61.402842 53.192010 17.539748 0.000000 0.000000 0.000000 0.597570 -48.069029 36.513487 -113.539678 -57.798661 -80.235231 27.314829 30.836163 -5.856516 0.000000 0.000000 0.000000 7.125000 0.000000 0.000000 36.489205 22.200266 25.651871
0.665421 16.795001 -1.775368 0.520284 2.180132 18.292190 0.000000 0.000000 0.000000 -13.867065 -17.511684 -38.884423 4.654961 12.984377 39.310127 0.755869 -6.181522 -15.503171 0.958927 -6.234434 -17.466512 0.000000 0.000000 0.000000 9.350073 15.785210 -37.127721 -4.420664 -12.700030 38.255703 -1.057365 -1.111729 -19.861360 -1.267176 7.135025 -20.116074 0.162907 0.955660 19.766367 3.255293 1.470982 6.108039 3.043921 0.705199 -4.534810 -18.415774 -8.843133 -4.361118 27.333602 -9.696499 -13.078389 11.635164 -4.981211 -0.358994 0.000000 0.000000 0.000000 12.653929 -48.477584 -42.694350 103.297036 -59.321121 71.489252 -30.609305 -6.900327 -32.740157 0.000000 0.000000 0.000000 -7.125000 0.000000 0.000000 -62.068355 52.518482 16.640376 0.000000 0.000000 0.000000 2.679495 -45.047479 39.361606 -108.679928 -58.639620 -76.103397 29.490035 33.756592 -7.554123 0.000000 0.000000 0.000000 7.125000 0.000000 0.000000 37.003616 20.245706 28.555903
0.736479 16.650629 -1.858580 0.703965 1.541205 18.222508 0.000000 0.000000 0.000000 -13.972809 -17.691790 -40.817585 5.345891 13.762192 42.294834 0.803822 -6.946962 -16.019991 0.812588 -5.749508 -16.060037 0.000000 0.000000 0.000000 8.619032 15.378171 -39.488943 -5.134805 -13.533105 41.399950 -1.179367 0.188370 -20.477448 -1.358470 7.377478 -20.838526 1.035799 0.715432 20.629760 3.535665 1.360197 6.238232 2.870909 0.647435 -4.823648 -17.791423 -8.524793 -3.687157 28.768116 -9.107828 -14.017819 12.187021 -4.845833 -0.777274 0.000000 0.000000 0.000000 16.684991 -52.186999 -39.419472 108.170464 -58.714528 75.668105 -32.036583 -7.532328 -33.424648 0.000000 0.000000 0.000000 -7.125000 0.000000 0.000000 -63.819806 52.661232 17.815794 0.000000 0.000000 0.000000 1.600837 -48.209478 39.714194 -111.684216 -58.145893 -78.662123 28.257716 29.630661 -5.671919 0.000000 0.000000 0.000000 7.125000 0.000000 0.000000 36.994794 22.189061 26.261739
0.780125 16.307859 -2.006808 0.928450 0.612413 17.290840 0.000000 0.000000 0.000000 -14.156715 -17.707457 -43.866266 6.804168 15.164408 48.129183 1.002917 -7.173512 -17.885148 0.776345 -5.625197 -15.700907 0.000000 0.000000 0.000000 7.718000 14.947037 -43.072483 -6.631104 -15.012820 47.464155 -1.499443 2.510795 -22.475676 -1.195547 6.937445 -19.530338 0.727933 0.614139 21.390797 3.543549 1.176662 6.476391 3.101245 0.555167 -4.956345 -17.546561 -8.220997 -2.032615 30.516429 -8.699287 -14.496147 12.964626 -4.863301 -1.163231 0.000000 0.000000 0.000000 23.900011 -59.141928 -30.938879 111.899669 -58.107878 78.845201 -30.593948 -5.348199 -33.728264 0.000000 0.000000 0.000000 -7.125000 0.000000 0.000000 -63.125829 53.124189 18.321881 0.000000 0.000000 0.000000 1.817046 -54.311081 39.279242 -115.363798 -57.423773 -81.775754 25.494064 28.890559 -3.891371 0.000000 0.000000 0.000000 7.125000 0.000000 0.000000 36.175045 24.256905 22.957664
0.801601 16.229604 -2.061016 0.834301 -1.243144 16.666504 0.000000 0.000000 0.000000 -14.323970 -17.070408 -44.116295 7.205132 15.502148 49.645843 1.141388 -5.991845 -19.092781 0.989891 -6.331144 -17.748731 0.000000 0.000000 0.000000 7.394701 15.929655 -43.404929 -6.896647 -15.243985 48.481954 -1.526549 3.195030 -22.543411 -1.355392 7.369526 -20.814811 0.039277 0.754793 22.402681 3.327150 1.205493 6.636509 3.255969 0.566831 -5.310568 -17.911323 -8.004370 -2.170404 31.230227 -8.327633 -14.598067 13.359910 -4.691529 -1.178874 0.000000 0.000000 0.000000 25.378261 -61.230496 -27.896407 112.736486 -57.953638 79.555084 -28.552857 -1.850276 -32.898766 0.000000 0.000000 0.000000 -7.125000 0.000000 0.000000 -60.744993 53.013311 16.886339 0.000000 0.000000 0.000000 2.855595 -55.704896 40.798576 -115.577561 -57.377578 -81.955868 24.961363 29.780364 -3.808337 0.000000 0.000000 0.000000 7.125000 0.000000 0.000000 35.922494 24.411047 22.528352
0.797597 16.508266 -1.956890 0.206975 -2.214317 17.511197 0.000000 0.000000 0.000000 -13.798349 -17.012927 -41.820174 6.049658 14.475296 45.178731 1.032854 -4.672873 -18.216570 0.761477 -5.571153 -15.545442 0.000000 0.000000 0.000000 8.270626 17.077274 -40.667604 -5.519741 -13.944800 43.019671 -1.235668 2.380148 -20.360985 -1.142725 6.788275 -19.089527 0.141903 0.509037 21.228527 3.045124 0.875800 6.311578 2.974206 0.407799 -5.036549 -18.059657 -7.966598 -2.589563 30.674947 -8.397322 -13.944073 13.107259 -4.642220 -0.948373 0.000000 0.000000 0.000000 14.693379 -54.408448 -37.420772 113.292027 -57.847374 80.025733 -26.876367 -2.139029 -33.787653 0.000000 0.000000 0.000000 -7.125000 0.000000 0.000000 -60.444804 53.897485 18.287985 0.000000 0.000000 0.000000 2.751909 -48.980890 42.821743 -114.283450 -57.649458 -80.864020 26.317765 28.793584 -3.958362 0.000000 0.000000 0.000000 7.125000 0.000000 0.000000 36.576478 24.066211 23.592498
0.778472 16.792348 -1.864033 -0.309835 -2.759830 18.599784 0.000000 0.000000 0.000000 -13.215670 -17.335345 -39.383087 4.845287 13.207292 40.149718 0.874280 -2.577139 -16.987001 0.860973 -5.915610 -16.540100 0.000000 0.000000 0.000000 9.085530 17.835915 -38.018234 -4.195123 -12.415367 37.217963 -0.988634 1.404742 -18.373717 -1.160690 6.839443 -19.240552 0.502217 -0.107912 20.432867 2.213015 0.089626 5.996887 2.061532 0.029126 -4.923190 -17.711518 -8.311838 -3.997964 30.017613 -8.895101 -13.270640 12.625553 -4.763748 -0.463939 0.000000 0.000000 0.000000 9.139718 -46.068700 -42.202384 112.914916 -57.919659 79.706291 -28.352355 -4.936333 -33.519040 0.000000 0.000000 0.000000 -7.125000 0.000000 0.000000 -61.257047 53.438196 17.903246 0.000000 0.000000 0.000000 1.451346 -43.099261 45.075374 -109.882859 -58.452147 -77.129553 28.686569 29.608202 -5.961296 0.000000 0.000000 0.000000 7.125000 0.000000 0.000000 37.107633 21.845065 26.805007
0.708991 16.749141 -1.904705 -0.917033 -2.945910 18.447315 0.000000 0.000000 0.000000 -12.162324 -17.004861 -40.168825 5.179950 13.582837 41.592784 0.915685 -2.801257 -17.356726 0.869784 -5.941931 -16.617412 0.000000 0.000000 0.000000 9.963381 18.173125 -38.428739 -4.395308 -12.667886 38.138847 -0.969799 1.534720 -18.160119 -1.248096 7.083208 -19.962093 0.568382 -0.539051 21.052431 1.039119 -0.528468 6.452000 0.918763 -0.268650 -4.744956 -17.742238 -8.291849 -3.866072 30.881187 -8.545783 -14.997779 13.094691 -4.711676 -0.965818 0.000000 0.000000 0.000000 10.354851 -46.939353 -41.158559 114.451141 -57.615025 81.005644 -28.992166 -5.211661 -33.871585 0.000000 0.000000 0.000000 -7.125000 0.000000 0.000000 -62.116005 53.526794 18.518909 0.000000 0.000000 0.000000 -0.325577 -45.306495 43.872834 -110.780239 -58.303581 -77.893660 29.873179 28.478488 -5.849883 0.000000 0.000000 0.000000 7.125000 0.000000 0.000000 37.681240 21.696534 27.699678
